<?xml version="1.0" encoding="UTF-8" standalone="no"?>
<!-- Created with Inkscape (http://www.inkscape.org/) -->

<svg
   width="180"
   height="180"
   viewBox="0 0 180 180"
   version="1.1"
   id="svg1"
   xml:space="preserve"
   inkscape:version="1.3 (0e150ed6c4, 2023-07-21)"
   sodipodi:docname="fog.svg"
   xmlns:inkscape="http://www.inkscape.org/namespaces/inkscape"
   xmlns:sodipodi="http://sodipodi.sourceforge.net/DTD/sodipodi-0.dtd"
   xmlns:xlink="http://www.w3.org/1999/xlink"
   xmlns="http://www.w3.org/2000/svg"
   xmlns:svg="http://www.w3.org/2000/svg"><sodipodi:namedview
     id="namedview1"
     pagecolor="#ffffff"
     bordercolor="#000000"
     borderopacity="0.25"
     inkscape:showpageshadow="2"
     inkscape:pageopacity="0.0"
     inkscape:pagecheckerboard="0"
     inkscape:deskcolor="#d1d1d1"
     inkscape:document-units="px"
     inkscape:zoom="4.1833333"
     inkscape:cx="90"
     inkscape:cy="90"
     inkscape:window-width="1920"
     inkscape:window-height="966"
     inkscape:window-x="0"
     inkscape:window-y="0"
     inkscape:window-maximized="1"
     inkscape:current-layer="layer1" /><defs
     id="defs1"><inkscape:path-effect
       effect="bspline"
       id="path-effect2"
       is_visible="true"
       lpeversion="1.3"
       weight="33.333333"
       steps="2"
       helper_size="0"
       apply_no_weight="true"
       apply_with_weight="true"
       only_selected="false"
       uniform="false" /><linearGradient
       id="linearGradient8"
       inkscape:collect="always"><stop
         style="stop-color:#cccccc;stop-opacity:1"
         offset="0"
         id="stop8" /><stop
         style="stop-color:#f9f9f9;stop-opacity:1"
         offset="1"
         id="stop9" /></linearGradient><linearGradient
       inkscape:collect="always"
       xlink:href="#linearGradient8"
       id="linearGradient9"
       x1="-48.975971"
       y1="97.877243"
       x2="250.51793"
       y2="56.164093"
       gradientUnits="userSpaceOnUse" /></defs><g
     inkscape:label="Katman 1"
     inkscape:groupmode="layer"
     id="layer1"><g
       inkscape:label="Katman 1"
       id="layer1-1"
       style="fill:url(#linearGradient9);fill-opacity:1"
       transform="translate(-0.561409,15.660269)"><circle
         style="fill:url(#linearGradient9);fill-opacity:1;stroke-width:1.01235"
         id="path5"
         cx="42.138504"
         cy="89.425041"
         r="40.697708" /><circle
         style="fill:url(#linearGradient9);fill-opacity:1;stroke-width:1.0442"
         id="path6"
         cx="62.929649"
         cy="56.869961"
         r="38.313248" /><circle
         style="fill:url(#linearGradient9);fill-opacity:1;stroke-width:1.0442"
         id="path7"
         cx="97.352066"
         cy="94.180962"
         r="33.915813" /><circle
         style="fill:url(#linearGradient9);fill-opacity:1;stroke-width:1.0442"
         id="path8"
         cx="114.99551"
         cy="57.423393"
         r="34.852341" /><circle
         style="fill:url(#linearGradient9);fill-opacity:1;stroke-width:1.0442"
         id="path8-7"
         cx="144.82968"
         cy="88.053909"
         r="34.852341" /></g><path
       style="fill:none;stroke:#000000;stroke-width:1.04959;stroke-linejoin:bevel"
       d="M 0.59920402,87.545282 C 12.688289,68.915974 20.039451,61.94846 30.524944,62.090771 41.010438,62.233079 52.570023,88.401608 61.621927,91.970653 70.67383,95.53968 83.748258,63.882006 93.11779,62.664671 c 9.36953,-1.217334 20.936,29.559719 30.10627,29.411846 14.72421,-0.237403 19.65112,-28.068198 29.3013,-28.852708 9.65017,-0.784509 16.21034,10.669732 26.94278,21.506974"
       id="path2"
       sodipodi:nodetypes="csssssc" /><path
       style="fill:none;stroke:#000000;stroke-width:1.04959;stroke-linejoin:bevel"
       d="M 0.5991993,122.76151 C 12.688284,104.1322 20.039446,97.16469 30.524939,97.307 c 10.485494,0.14231 22.045079,26.31083 31.096983,29.87988 9.051903,3.56902 22.126331,-28.08865 31.495863,-29.30598 9.369535,-1.21734 20.936005,29.55971 30.106275,29.41184 14.72421,-0.2374 19.65112,-28.06819 29.3013,-28.8527 9.65017,-0.78451 16.21034,10.66973 26.94278,21.50697"
       id="path2-2"
       sodipodi:nodetypes="csssssc" /><path
       style="fill:none;stroke:#000000;stroke-width:1.04959;stroke-linejoin:bevel"
       d="M 0.59920342,105.15461 C 12.688288,86.5253 20.03945,79.557782 30.524943,79.700093 c 10.485494,0.142308 22.045079,26.310837 31.096983,29.879887 9.051903,3.56902 22.126331,-28.088652 31.495863,-29.305987 9.369531,-1.217334 20.935991,29.559717 30.106271,29.411847 14.72421,-0.2374 19.65112,-28.068199 29.3013,-28.852709 9.65017,-0.784509 16.21034,10.669739 26.94278,21.506979"
       id="path2-5"
       sodipodi:nodetypes="csssssc" /></g></svg>
