<?xml version="1.0" encoding="UTF-8" standalone="no"?>
<!-- Created with Inkscape (http://www.inkscape.org/) -->

<svg
   width="180"
   height="180"
   viewBox="0 0 180 180"
   version="1.1"
   id="svg5"
   xml:space="preserve"
   inkscape:version="1.2.2 (b0a8486541, 2022-12-01)"
   sodipodi:docname="rain-new.svg"
   xmlns:inkscape="http://www.inkscape.org/namespaces/inkscape"
   xmlns:sodipodi="http://sodipodi.sourceforge.net/DTD/sodipodi-0.dtd"
   xmlns:xlink="http://www.w3.org/1999/xlink"
   xmlns="http://www.w3.org/2000/svg"
   xmlns:svg="http://www.w3.org/2000/svg"><sodipodi:namedview
     id="namedview7"
     pagecolor="#ffffff"
     bordercolor="#000000"
     borderopacity="0.25"
     inkscape:showpageshadow="2"
     inkscape:pageopacity="0.0"
     inkscape:pagecheckerboard="0"
     inkscape:deskcolor="#d1d1d1"
     inkscape:document-units="px"
     showgrid="false"
     inkscape:zoom="4.3444444"
     inkscape:cx="90.460358"
     inkscape:cy="90"
     inkscape:window-width="1920"
     inkscape:window-height="1011"
     inkscape:window-x="0"
     inkscape:window-y="0"
     inkscape:window-maximized="1"
     inkscape:current-layer="layer1-3" /><defs
     id="defs2"><linearGradient
       id="linearGradient8"
       inkscape:collect="always"><stop
         style="stop-color:#cccccc;stop-opacity:1"
         offset="0"
         id="stop8" /><stop
         style="stop-color:#f9f9f9;stop-opacity:1"
         offset="1"
         id="stop9" /></linearGradient><linearGradient
       inkscape:collect="always"
       xlink:href="#linearGradient8"
       id="linearGradient9"
       x1="-48.975971"
       y1="97.877243"
       x2="250.51793"
       y2="56.164093"
       gradientUnits="userSpaceOnUse" /><linearGradient
       inkscape:collect="always"
       xlink:href="#linearGradient8"
       id="linearGradient37"
       gradientUnits="userSpaceOnUse"
       x1="-48.975971"
       y1="97.877243"
       x2="250.51793"
       y2="56.164093" /><linearGradient
       inkscape:collect="always"
       xlink:href="#linearGradient8"
       id="linearGradient39"
       gradientUnits="userSpaceOnUse"
       x1="-48.975971"
       y1="97.877243"
       x2="250.51793"
       y2="56.164093" /><linearGradient
       inkscape:collect="always"
       xlink:href="#linearGradient8"
       id="linearGradient41"
       gradientUnits="userSpaceOnUse"
       x1="-48.975971"
       y1="97.877243"
       x2="250.51793"
       y2="56.164093" /><linearGradient
       inkscape:collect="always"
       xlink:href="#linearGradient8"
       id="linearGradient43"
       gradientUnits="userSpaceOnUse"
       x1="-48.975971"
       y1="97.877243"
       x2="250.51793"
       y2="56.164093" /><linearGradient
       inkscape:collect="always"
       xlink:href="#linearGradient8"
       id="linearGradient45"
       gradientUnits="userSpaceOnUse"
       x1="-48.975971"
       y1="97.877243"
       x2="250.51793"
       y2="56.164093" /></defs><g
     inkscape:label="Katman 1"
     inkscape:groupmode="layer"
     id="layer1"><g
       inkscape:label="Katman 1"
       id="layer1-3"
       style="fill:url(#linearGradient9);fill-opacity:1"
       transform="translate(-0.561409,15.660269)"><circle
         style="fill:url(#linearGradient37);fill-opacity:1;stroke-width:1.01235"
         id="path5"
         cx="42.138504"
         cy="89.425041"
         r="40.697708" /><circle
         style="fill:url(#linearGradient39);fill-opacity:1;stroke-width:1.0442"
         id="path6"
         cx="62.929649"
         cy="56.869961"
         r="38.313248" /><circle
         style="fill:url(#linearGradient41);fill-opacity:1;stroke-width:1.0442"
         id="path7"
         cx="97.352066"
         cy="94.180962"
         r="33.915813" /><circle
         style="fill:url(#linearGradient43);fill-opacity:1;stroke-width:1.0442"
         id="path8"
         cx="114.99551"
         cy="57.423393"
         r="34.852341" /><circle
         style="fill:url(#linearGradient45);fill-opacity:1;stroke-width:1.0442"
         id="path8-7"
         cx="144.82968"
         cy="88.053909"
         r="34.852341" /><path
         id="path2"
         style="fill:#00c3d0;fill-opacity:1;stroke-width:0.417799"
         d="m 54.281943,102.64185 c -1.93331,7.21519 -8.871013,11.62525 -15.495794,9.85016 -6.624805,-1.77511 -10.428015,-9.06321 -8.494707,-16.27837 1.9333,-7.215179 17.9925,-19.167888 17.9925,-19.167888 0,0 7.931303,18.380948 5.998001,25.596098 z"
         sodipodi:nodetypes="ssscs" /><path
         id="path2-9"
         style="fill:#00c3d0;fill-opacity:1;stroke-width:0.417799"
         d="m 32.537453,128.78228 c -1.93331,7.21519 -8.87101,11.62525 -15.49579,9.85016 -6.62481,-1.77511 -10.4280199,-9.06321 -8.4947099,-16.27839 1.9332999,-7.2152 17.9924999,-19.16791 17.9924999,-19.16791 0,0 7.9313,18.38096 5.998,25.59614 z"
         sodipodi:nodetypes="ssscs" /><path
         id="path2-5"
         style="fill:#00c3d0;fill-opacity:1;stroke-width:0.417799"
         d="m 88.294162,105.96316 c -1.93331,7.21519 -8.871013,11.62525 -15.495794,9.85016 -6.624805,-1.77511 -10.428015,-9.06321 -8.494707,-16.278384 1.9333,-7.21518 17.9925,-19.167886 17.9925,-19.167886 0,0 7.931303,18.380946 5.998001,25.59611 z"
         sodipodi:nodetypes="ssscs" /><path
         id="path2-9-9"
         style="fill:#00c3d0;fill-opacity:1;stroke-width:0.417799"
         d="m 65.750339,132.52168 c -1.93331,7.21519 -8.87101,11.62525 -15.49579,9.85016 -6.62481,-1.77511 -10.42802,-9.06321 -8.49471,-16.27839 1.9333,-7.2152 17.9925,-19.1679 17.9925,-19.1679 0,0 7.9313,18.38095 5.998,25.59613 z"
         sodipodi:nodetypes="ssscs" /><path
         id="path2-2"
         style="fill:#00c3d0;fill-opacity:1;stroke-width:0.417799"
         d="m 120.1182,107.50428 c -1.93331,7.21519 -8.87101,11.62525 -15.49579,9.85016 -6.624807,-1.77511 -10.427997,-9.06321 -8.494707,-16.27838 1.9333,-7.21518 17.992497,-19.167889 17.992497,-19.167889 0,0 7.93131,18.380949 5.998,25.596109 z"
         sodipodi:nodetypes="ssscs" /><path
         id="path2-9-2"
         style="fill:#00c3d0;fill-opacity:1;stroke-width:0.417799"
         d="m 100.00925,135.26584 c -1.933308,7.21519 -8.871007,11.62525 -15.495792,9.85016 -6.62481,-1.77511 -10.42802,-9.06321 -8.49471,-16.27839 1.9333,-7.2152 17.992505,-19.1679 17.992505,-19.1679 0,0 7.931297,18.38095 5.997997,25.59613 z"
         sodipodi:nodetypes="ssscs" /></g></g></svg>
