<?xml version="1.0" encoding="UTF-8" standalone="no"?>
<!-- Created with Inkscape (http://www.inkscape.org/) -->

<svg
   width="120"
   height="120"
   viewBox="0 0 120 120"
   version="1.1"
   id="svg1"
   xml:space="preserve"
   inkscape:version="1.3 (0e150ed6c4, 2023-07-21)"
   sodipodi:docname="tornado.svg"
   xmlns:inkscape="http://www.inkscape.org/namespaces/inkscape"
   xmlns:sodipodi="http://sodipodi.sourceforge.net/DTD/sodipodi-0.dtd"
   xmlns="http://www.w3.org/2000/svg"
   xmlns:svg="http://www.w3.org/2000/svg"><sodipodi:namedview
     id="namedview1"
     pagecolor="#ffffff"
     bordercolor="#000000"
     borderopacity="0.25"
     inkscape:showpageshadow="2"
     inkscape:pageopacity="0.0"
     inkscape:pagecheckerboard="0"
     inkscape:deskcolor="#d1d1d1"
     inkscape:document-units="px"
     inkscape:zoom="6.275"
     inkscape:cx="34.422311"
     inkscape:cy="57.609562"
     inkscape:window-width="1920"
     inkscape:window-height="966"
     inkscape:window-x="0"
     inkscape:window-y="0"
     inkscape:window-maximized="1"
     inkscape:current-layer="layer1" /><defs
     id="defs1"><inkscape:path-effect
       effect="bspline"
       id="path-effect6"
       is_visible="true"
       lpeversion="1.3"
       weight="33.333333"
       steps="2"
       helper_size="0"
       apply_no_weight="true"
       apply_with_weight="true"
       only_selected="false"
       uniform="false" /><inkscape:path-effect
       effect="bspline"
       id="path-effect4"
       is_visible="true"
       lpeversion="1.3"
       weight="33.333333"
       steps="2"
       helper_size="0"
       apply_no_weight="true"
       apply_with_weight="true"
       only_selected="false"
       uniform="false" /><inkscape:path-effect
       effect="bspline"
       id="path-effect6-9"
       is_visible="true"
       lpeversion="1.3"
       weight="33.333333"
       steps="2"
       helper_size="0"
       apply_no_weight="true"
       apply_with_weight="true"
       only_selected="false"
       uniform="false" /><inkscape:path-effect
       effect="bspline"
       id="path-effect6-9-2"
       is_visible="true"
       lpeversion="1.3"
       weight="33.333333"
       steps="2"
       helper_size="0"
       apply_no_weight="true"
       apply_with_weight="true"
       only_selected="false"
       uniform="false" /><inkscape:path-effect
       effect="bspline"
       id="path-effect6-9-2-9"
       is_visible="true"
       lpeversion="1.3"
       weight="33.333333"
       steps="2"
       helper_size="0"
       apply_no_weight="true"
       apply_with_weight="true"
       only_selected="false"
       uniform="false" /></defs><g
     inkscape:label="Katman 1"
     inkscape:groupmode="layer"
     id="layer1"><path
       id="path3"
       style="fill:#4d4d4d;fill-opacity:1;stroke:#000000;stroke-width:0.668785;stroke-linejoin:bevel;stroke-opacity:1"
       d="M 75.141227,21.066132 A 29.637908,8.2183076 0 0 0 74.880071,20.954763 29.637908,8.2183076 0 0 0 74.153846,20.6695 29.637908,8.2183076 0 0 0 73.384693,20.394007 29.637908,8.2183076 0 0 0 72.574397,20.128283 29.637908,8.2183076 0 0 0 71.722962,19.870375 29.637908,8.2183076 0 0 0 70.832173,19.62419 a 29.637908,8.2183076 0 0 0 -0.926562,-0.236416 29.637908,8.2183076 0 0 0 -0.960549,-0.224693 29.637908,8.2183076 0 0 0 -0.996323,-0.21297 29.637908,8.2183076 0 0 0 -1.026732,-0.201246 29.637908,8.2183076 0 0 0 -1.05714,-0.189524 29.637908,8.2183076 0 0 0 -1.08576,-0.177801 29.637908,8.2183076 0 0 0 -1.110801,-0.162169 29.637908,8.2183076 0 0 0 -1.135845,-0.150447 29.637908,8.2183076 0 0 0 -1.157308,-0.136769 29.637908,8.2183076 0 0 0 -1.176986,-0.123093 29.637908,8.2183076 0 0 0 -1.194872,-0.109415 29.637908,8.2183076 0 0 0 -1.209183,-0.09574 29.637908,8.2183076 0 0 0 -1.22528,-0.08011 29.637908,8.2183076 0 0 0 -1.234225,-0.06643 29.637908,8.2183076 0 0 0 -1.244957,-0.05275 29.637908,8.2183076 0 0 0 -1.250322,-0.03517 29.637908,8.2183076 0 0 0 -1.25569,-0.02345 29.637908,8.2183076 0 0 0 -1.257478,-0.0078 29.637908,8.2183076 0 0 0 -3.573884,0.06057 29.637908,8.2183076 0 0 0 -3.520223,0.179755 29.637908,8.2183076 0 0 0 -3.416476,0.295031 29.637908,8.2183076 0 0 0 -3.264434,0.406401 29.637908,8.2183076 0 0 0 -3.062308,0.513863 29.637908,8.2183076 0 0 0 -2.817251,0.611556 29.637908,8.2183076 0 0 0 -2.531055,0.701432 29.637908,8.2183076 0 0 0 -2.207294,0.781541 29.637908,8.2183076 0 0 0 -1.851337,0.849925 29.637908,8.2183076 0 0 0 -1.468548,0.904633 29.637908,8.2183076 0 0 0 -1.064295,0.947618 29.637908,8.2183076 0 0 0 -0.645732,0.976925 29.637908,8.2183076 0 0 0 -0.216436,0.990603 29.637908,8.2183076 0 0 0 0.03399,0.154354 28.858206,8.2228984 0 0 0 25.764883,4.534888 28.858206,8.2228984 0 0 0 28.857598,-8.221805 28.858206,8.2228984 0 0 0 -0.202126,-0.959341 z" /><path
       id="path5"
       style="fill:#cccccc;fill-opacity:1;stroke:#000000;stroke-width:0.668785;stroke-linejoin:bevel;stroke-opacity:1"
       d="m 46.485755,13.801713 a 28.858206,8.2228984 0 0 0 -28.859387,8.22376 28.858206,8.2228984 0 0 0 3.094504,3.686917 29.637908,8.2183076 0 0 1 -0.03399,-0.154354 29.637908,8.2183076 0 0 1 0.216436,-0.990603 29.637908,8.2183076 0 0 1 0.645732,-0.976925 29.637908,8.2183076 0 0 1 1.064295,-0.947618 29.637908,8.2183076 0 0 1 1.468548,-0.904633 29.637908,8.2183076 0 0 1 1.851337,-0.849925 29.637908,8.2183076 0 0 1 2.207294,-0.781541 29.637908,8.2183076 0 0 1 2.531055,-0.701432 29.637908,8.2183076 0 0 1 2.817251,-0.611556 29.637908,8.2183076 0 0 1 3.062308,-0.513863 29.637908,8.2183076 0 0 1 3.264434,-0.406401 29.637908,8.2183076 0 0 1 3.416476,-0.295031 29.637908,8.2183076 0 0 1 3.520223,-0.179755 29.637908,8.2183076 0 0 1 3.573884,-0.06057 29.637908,8.2183076 0 0 1 1.257478,0.0078 29.637908,8.2183076 0 0 1 1.25569,0.02345 29.637908,8.2183076 0 0 1 1.250322,0.03517 29.637908,8.2183076 0 0 1 1.244957,0.05275 29.637908,8.2183076 0 0 1 1.234225,0.06643 29.637908,8.2183076 0 0 1 1.22528,0.08011 29.637908,8.2183076 0 0 1 1.209183,0.09574 29.637908,8.2183076 0 0 1 1.194872,0.109415 29.637908,8.2183076 0 0 1 1.176986,0.123093 29.637908,8.2183076 0 0 1 1.157308,0.136769 29.637908,8.2183076 0 0 1 1.135845,0.150447 29.637908,8.2183076 0 0 1 1.110801,0.162169 29.637908,8.2183076 0 0 1 1.08576,0.177801 29.637908,8.2183076 0 0 1 1.05714,0.189524 29.637908,8.2183076 0 0 1 1.026732,0.201246 29.637908,8.2183076 0 0 1 0.996323,0.21297 29.637908,8.2183076 0 0 1 0.960549,0.224693 29.637908,8.2183076 0 0 1 0.926562,0.236416 29.637908,8.2183076 0 0 1 0.890789,0.246185 29.637908,8.2183076 0 0 1 0.851435,0.257908 29.637908,8.2183076 0 0 1 0.810296,0.265724 29.637908,8.2183076 0 0 1 0.769153,0.275493 29.637908,8.2183076 0 0 1 0.726225,0.285263 29.637908,8.2183076 0 0 1 0.261156,0.111369 28.858206,8.2228984 0 0 0 -28.655472,-7.264419 z" /><path
       style="fill:none;fill-opacity:1;stroke:#000000;stroke-width:0.765734;stroke-linejoin:bevel;stroke-opacity:1"
       d="m 17.527468,21.520087 c -1.165122,7.063341 -1.188877,13.491485 0.07405,20.53362 1.262933,7.042133 15.607484,10.468316 17.597848,18.052039 1.990365,7.583723 -5.256734,18.500633 -3.008734,25.46429 2.247999,6.963656 6.281279,9.490416 9.091476,13.360567 2.810198,3.870147 -0.371826,4.944747 1.420919,4.129347 1.792748,-0.81541 -2.005771,-12.415979 2.13379,-17.708314 C 48.976376,80.059302 62.340475,77.158504 66.489212,68.579309 70.63795,60.000114 63.17607,57.474894 65.327129,49.908848 67.478189,42.342801 79.01082,36.396358 77.849423,30.752994 76.738461,25.354704 76.667289,29.08142 74.753175,20.217312"
       id="path4"
       sodipodi:nodetypes="csssssssssc" /><path
       style="fill:none;fill-opacity:1;stroke:#000000;stroke-width:0.8;stroke-linejoin:bevel;stroke-dasharray:none;stroke-opacity:1"
       d="m -54.55615,17.121514 c 4.145916,6.233815 8.291832,12.467629 14.626994,14.541915 6.335161,2.074287 14.859313,-0.01089 23.383464,-2.096073"
       id="path6"
       inkscape:path-effect="#path-effect6"
       inkscape:original-d="m -54.55615,17.121514 c 4.145916,6.233815 8.291832,12.467629 12.437749,18.701444 8.524406,-2.085242 17.048558,-4.170422 25.572709,-6.255602"
       transform="matrix(1.0124666,0,0,0.43796879,72.275855,25.934851)"
       sodipodi:nodetypes="ccc" /><path
       style="fill:none;fill-opacity:1;stroke:#000000;stroke-width:0.8;stroke-linejoin:bevel;stroke-dasharray:none;stroke-opacity:1"
       d="m -54.632908,20.243324 c 4.171502,5.193211 8.343004,10.386422 14.690959,11.940407 6.347954,1.553985 14.872106,-0.531195 23.396257,-2.616375"
       id="path6-6"
       inkscape:path-effect="#path-effect6-9"
       inkscape:original-d="m -54.632908,20.243324 c 4.171502,5.193211 8.343004,10.386422 12.514507,15.579634 8.524406,-2.085242 17.048558,-4.170422 25.572709,-6.255602"
       transform="matrix(0.81330444,0,0,0.51735366,75.564224,37.798901)"
       sodipodi:nodetypes="ccc" /><path
       style="fill:none;fill-opacity:1;stroke:#000000;stroke-width:0.8;stroke-linejoin:bevel;stroke-dasharray:none;stroke-opacity:1"
       d="m -55.410235,20.883927 c 4.430611,4.979677 8.861222,9.959353 15.338731,11.406571 6.477509,1.447218 15.001661,-0.637962 23.525812,-2.723142"
       id="path6-6-1"
       inkscape:path-effect="#path-effect6-9-2"
       inkscape:original-d="m -55.410235,20.883927 c 4.430611,4.979677 8.861222,9.959353 13.291834,14.939031 8.524406,-2.085242 17.048558,-4.170422 25.572709,-6.255602"
       transform="matrix(0.55537118,0,0,0.46237039,75.652323,55.988328)"
       sodipodi:nodetypes="ccc" /><path
       style="fill:none;fill-opacity:1;stroke:#000000;stroke-width:0.8;stroke-linejoin:bevel;stroke-dasharray:none;stroke-opacity:1"
       d="m -54.55615,17.121514 c 4.145916,6.233815 8.291832,12.467629 13.40566,14.878917 5.113829,2.411288 11.195387,1.000092 17.276945,-0.411105"
       id="path6-6-1-0"
       inkscape:path-effect="#path-effect6-9-2-9"
       inkscape:original-d="m -54.55615,17.121514 c 4.145916,6.233815 8.291832,12.467629 12.437749,18.701444 6.08174,-1.411239 12.163298,-2.822435 18.244856,-4.233632"
       transform="matrix(0.41701276,0,0,0.36527309,55.600899,70.204591)"
       sodipodi:nodetypes="ccc" /><path
       style="fill:#ffffff;fill-opacity:1;stroke:#000000;stroke-width:0.063745;stroke-linejoin:bevel;stroke-dasharray:none;stroke-opacity:1"
       d="m 40.627209,97.391995 c -0.213491,-0.251136 -1.059885,-1.203278 -1.880875,-2.115871 -1.793756,-1.993894 -2.66928,-3.070998 -3.446701,-4.240267 -1.059896,-1.594125 -1.771569,-3.014905 -2.455927,-4.903004 -0.512212,-1.413159 -0.640194,-2.159419 -0.634981,-3.702574 0.0047,-1.395367 0.120767,-2.3567 0.513403,-4.252794 l 0.25365,-1.224905 0.165095,0.228889 c 0.5348,0.741449 1.673967,2.089101 2.34148,2.770008 1.30245,1.328582 2.368004,2.020282 3.661155,2.376623 0.517789,0.142682 0.842514,0.170804 2.011871,0.174236 1.371542,0.004 1.689144,-0.02943 3.426294,-0.360878 1.102224,-0.210305 1.115538,-0.215006 1.115538,-0.39384 0,-0.193819 -0.07554,-0.193165 -1.115538,0.0097 -2.135245,0.416408 -3.83915,0.507512 -5.003359,0.267518 C 37.679772,81.633415 36.040846,80.288602 33.6604,77.16887 l -0.549057,-0.719575 0.48301,-1.750544 c 1.585241,-5.745291 1.889878,-7.007128 2.19242,-9.081221 0.190731,-1.307575 0.19488,-3.784856 0.008,-4.794479 -0.371217,-2.00581 -1.306262,-3.665982 -3.044956,-5.406319 -1.428272,-1.429622 -2.720366,-2.419577 -6.494865,-4.976134 -4.456269,-3.018333 -6.045058,-4.364521 -7.225424,-6.122135 -0.785872,-1.170197 -0.998906,-1.920338 -1.414285,-4.980038 -0.108266,-0.797489 -0.235444,-1.844401 -0.282618,-2.326473 -0.07835,-0.800659 -0.231209,-3.087966 -0.208633,-3.121887 0.0052,-0.0079 0.618624,0.370101 1.363073,0.839945 3.930949,2.480943 6.676293,3.757365 9.879441,4.593359 4.547603,1.186884 9.629204,1.360848 18.486056,0.63285 1.647831,-0.135445 8.753472,-0.839682 8.787843,-0.870958 0.0126,-0.01146 -0.0187,-0.112149 -0.06955,-0.223745 -0.07663,-0.168188 -0.135081,-0.197033 -0.341628,-0.168592 -0.780199,0.107427 -6.074252,0.626521 -8.416511,0.825259 -6.967764,0.591207 -12.194658,0.564575 -15.784324,-0.08042 -4.137019,-0.743349 -7.568977,-2.236592 -12.609222,-5.486271 -0.71769,-0.462727 -1.071841,-0.646827 -1.186575,-0.616824 -0.163159,0.04267 -0.163438,0.0366 -0.117778,-2.562283 0.02517,-1.432777 0.103472,-3.23254 0.173998,-3.999473 0.135901,-1.477859 0.335172,-3.108747 0.38606,-3.159636 0.01678,-0.01678 0.128697,0.111195 0.248714,0.284379 1.239836,1.789085 4.830504,3.542773 9.646099,4.711172 3.761003,0.912524 7.764327,1.479506 13.027889,1.845108 2.318631,0.161051 10.07302,0.135228 12.430278,-0.04139 4.91971,-0.368618 8.818253,-0.930611 12.231076,-1.763167 4.542317,-1.108095 7.60637,-2.479989 9.251846,-4.142405 l 0.646269,-0.652922 0.32721,1.096444 c 0.179965,0.603044 0.540941,1.578911 0.802166,2.168592 0.521746,1.177768 0.700355,1.722775 1.011594,3.086769 0.349063,1.529753 0.18473,2.590279 -0.622493,4.01726 -0.828385,1.464391 -1.600383,2.386087 -5.005478,5.976095 -2.25417,2.376583 -2.910936,3.109954 -3.781982,4.223108 -3.033492,3.876659 -3.960722,7.217487 -3.017588,10.87243 0.108009,0.41857 0.567835,1.693307 1.021836,2.832749 0.454001,1.139442 0.899465,2.313831 0.989919,2.609753 0.7993,2.614908 0.513884,5.09815 -0.901947,7.8473 -0.242943,0.471729 -0.471577,0.903616 -0.508075,0.95975 -0.104734,0.16108 -4.121109,0.901901 -6.428416,1.185723 -1.609416,0.197974 -4.353255,0.196663 -5.418327,-0.0026 -2.581426,-0.482927 -4.507492,-1.582053 -7.488268,-4.273245 -0.558216,-0.503984 -1.058105,-0.926626 -1.110865,-0.939204 -0.05276,-0.01258 -0.157053,0.04467 -0.231761,0.127223 -0.130263,0.143938 -0.103922,0.179459 0.642351,0.866219 5.286929,4.865307 8.375107,5.642981 16.716071,4.209492 0.87739,-0.150789 1.859827,-0.329817 2.183192,-0.397839 0.323365,-0.06802 0.605626,-0.105986 0.627247,-0.08437 0.08111,0.08111 -1.225067,1.586001 -2.110349,2.431398 -2.070891,1.977589 -4.170048,3.36847 -9.613976,6.370124 -5.028028,2.772338 -6.478624,3.718528 -7.945041,5.182369 -1.656979,1.654068 -2.478959,3.638061 -2.789781,6.73363 -0.09544,0.950521 -0.05739,5.41096 0.05492,6.437208 l 0.05014,0.458168 h -0.797 -0.797 z m 10.6232,-42.607836 c 2.467348,-0.214607 5.546315,-0.612899 9.744621,-1.260557 1.195925,-0.18449 1.335384,-0.253586 1.098906,-0.54446 -0.09194,-0.113094 -0.347235,-0.08775 -2.611864,0.259338 -9.422957,1.444188 -14.223686,1.599801 -18.116674,0.587241 -2.667477,-0.693806 -5.359267,-2.157425 -8.635816,-4.695589 -0.711878,-0.551453 -1.339368,-1.001844 -1.394423,-1.00087 -0.122118,0.0022 -0.511441,0.292255 -0.457475,0.340875 0.374412,0.337319 2.859966,2.191226 3.664949,2.733587 2.610933,1.759128 5.063154,2.831102 7.613975,3.328408 0.905554,0.176545 1.453009,0.244615 3.221878,0.400606 0.72323,0.06378 4.541094,-0.03283 5.871923,-0.148579 z"
       id="path14" /></g></svg>
