<?xml version="1.0" encoding="UTF-8" standalone="no"?>
<!-- Created with Inkscape (http://www.inkscape.org/) -->

<svg
   width="180"
   height="180"
   viewBox="0 0 180 180"
   version="1.1"
   id="svg1"
   xml:space="preserve"
   inkscape:version="1.3 (0e150ed6c4, 2023-07-21)"
   sodipodi:docname="wind.svg"
   xmlns:inkscape="http://www.inkscape.org/namespaces/inkscape"
   xmlns:sodipodi="http://sodipodi.sourceforge.net/DTD/sodipodi-0.dtd"
   xmlns="http://www.w3.org/2000/svg"
   xmlns:svg="http://www.w3.org/2000/svg"><sodipodi:namedview
     id="namedview1"
     pagecolor="#ffffff"
     bordercolor="#000000"
     borderopacity="0.25"
     inkscape:showpageshadow="2"
     inkscape:pageopacity="0.0"
     inkscape:pagecheckerboard="0"
     inkscape:deskcolor="#d1d1d1"
     inkscape:document-units="px"
     inkscape:zoom="4.1833333"
     inkscape:cx="51.633466"
     inkscape:cy="92.151394"
     inkscape:window-width="1920"
     inkscape:window-height="966"
     inkscape:window-x="0"
     inkscape:window-y="0"
     inkscape:window-maximized="1"
     inkscape:current-layer="layer1" /><defs
     id="defs1" /><g
     inkscape:label="Katman 1"
     inkscape:groupmode="layer"
     id="layer1"
     transform="translate(267.97297,29.024977)"><path
       style="color:#000000;fill:#ffffff;fill-rule:evenodd;stroke:#ffffff;stroke-width:0.8;stroke-linejoin:bevel;stroke-dasharray:none;stroke-opacity:1"
       d="m -117.63751,37.611158 c -1.73159,0.125102 -3.47942,0.448466 -5.22461,0.990235 -10.17849,3.159765 -17.47037,14.083781 -13.89063,24.691411 2.49883,7.40462 10.64461,12.72155 18.40625,9.82031 2.55938,-0.95667 4.74875,-2.88106 6.02735,-5.25 1.27859,-2.36894 1.63967,-5.20285 0.49023,-7.90625 -0.70187,-1.65074 -2.03104,-3.06222 -3.63476,-3.85938 -1.60372,-0.79716 -3.50768,-0.96908 -5.26953,-0.082 -0.965,0.48585 -1.78867,1.34183 -2.23047,2.35352 -0.4418,1.01169 -0.4839,2.21345 0.18164,3.25781 0.31124,0.48838 0.81274,0.89739 1.39648,1.09961 0.58374,0.20222 1.29999,0.16403 1.83399,-0.32617 0.20423,-0.18748 0.34753,-0.43527 0.41015,-0.74024 0.0313,-0.15248 0.0382,-0.32479 -0.0215,-0.5039 -0.0597,-0.17912 -0.20147,-0.35277 -0.38672,-0.45118 -0.11167,-0.0593 -0.10575,-0.0434 -0.14648,-0.0527 -0.0407,-0.009 -0.0854,-0.0164 -0.14454,-0.0195 -0.0591,-0.003 -0.12965,-0.0131 -0.25586,0.043 -0.0631,0.0281 -0.14587,0.0824 -0.20312,0.17578 -0.0573,0.0934 -0.0732,0.21168 -0.0625,0.29492 l 0.8125,-0.10547 c 0.008,0.0608 -0.004,0.16123 -0.0527,0.24024 -0.0484,0.079 -0.11654,0.12231 -0.16211,0.14257 -0.0883,0.0393 -0.10718,0.0285 -0.11524,0.0273 1.1e-4,2e-5 -0.002,-7e-5 -0.002,0 0.006,0.002 0.0432,0.0275 -0.0527,-0.0234 0.0161,0.009 -0.006,-0.011 -0.006,-0.0117 -2.4e-4,-7.2e-4 0.006,0.0295 -0.004,0.0801 -0.0208,0.10114 -0.12226,0.2642 -0.16211,0.30078 -0.29537,0.27115 -0.6273,0.28747 -1.01172,0.1543 -0.38442,-0.13317 -0.77216,-0.45101 -0.97266,-0.76563 -0.50785,-0.79691 -0.47916,-1.66833 -0.12109,-2.48828 0.35807,-0.81994 1.06367,-1.55548 1.8457,-1.94922 1.51486,-0.76269 3.1195,-0.62066 4.53711,0.084 1.41762,0.70465 2.62306,1.98459 3.24414,3.44531 1.04527,2.4584 0.72524,5.01042 -0.45507,7.19727 -1.18032,2.18684 -3.22968,3.98742 -5.59375,4.87109 -7.2757,2.7196 -14.97947,-2.30851 -17.34375,-9.31445 -3.41695,-10.1252 3.58391,-20.614397 13.35742,-23.648441 13.48203,-4.185304 27.232098,5.155596 31.009758,18.203121 2.52553,8.72282 1.50043,14.68599 -1.30859,19.08985 -2.80902,4.40385 -7.456118,7.27246 -12.265628,9.62695 -14.47878,7.08805 -36.88065,7.14878 -56.30859,2.73633 -9.71397,-2.20623 -18.68548,-5.52713 -25.55078,-9.60938 -6.86531,-4.08224 -11.598,-8.92287 -12.94141,-14.10351 l -0.79297,0.20508 c 1.42891,5.51037 6.34751,10.46083 13.31445,14.60351 6.96695,4.14268 16.00835,7.48174 25.78907,9.70313 19.56144,4.44277 42.07616,4.43443 56.85156,-2.79883 4.857718,-2.37809 9.653648,-5.30946 12.595708,-9.92188 2.94205,-4.61242 3.97641,-10.88279 1.40625,-19.75976 C -94.230432,45.5819 -105.51642,36.735446 -117.63751,37.611158 Z"
       id="path13" /><path
       style="color:#000000;fill:#ffffff;fill-rule:evenodd;stroke:#ffffff;stroke-width:0.8;stroke-linejoin:bevel;stroke-dasharray:none;stroke-opacity:1"
       d="m -152.98517,13.234205 c -1.73158,0.125102 -3.48137,0.448466 -5.22656,0.990235 -10.17849,3.159765 -17.47038,14.083775 -13.89062,24.691406 2.49882,7.404618 10.64655,12.721558 18.4082,9.820308 2.55938,-0.95667 4.74875,-2.88106 6.02734,-5.249996 1.2786,-2.368937 1.63772,-5.20285 0.48828,-7.90625 -0.70187,-1.650734 -2.02909,-3.062214 -3.63281,-3.859375 -1.60372,-0.79716 -3.50963,-0.967123 -5.27148,-0.08008 -0.965,0.485848 -1.78672,1.339871 -2.22852,2.351563 -0.4418,1.011692 -0.4839,2.213456 0.18164,3.257812 0.31124,0.488375 0.81275,0.897389 1.39649,1.09961 0.58374,0.20222 1.29803,0.164034 1.83203,-0.326172 0.20422,-0.187478 0.34948,-0.435272 0.41211,-0.740235 0.0313,-0.152481 0.0382,-0.324794 -0.0215,-0.503906 -0.0597,-0.179112 -0.20147,-0.352764 -0.38672,-0.451172 -0.11217,-0.05983 -0.1057,-0.04138 -0.14648,-0.05078 -0.0408,-0.0094 -0.0854,-0.01834 -0.14453,-0.02148 -0.0591,-0.0031 -0.13161,-0.01314 -0.25781,0.04297 -0.0631,0.02805 -0.14588,0.08236 -0.20313,0.175782 -0.0572,0.09342 -0.0712,0.211674 -0.0606,0.294921 l 0.8125,-0.105468 c 0.008,0.06085 -0.004,0.161233 -0.0527,0.240234 -0.0484,0.079 -0.11654,0.122319 -0.16211,0.142578 -0.0883,0.03927 -0.10913,0.02845 -0.11719,0.02734 0.005,0.0023 0.0436,0.02797 -0.0527,-0.02344 0.007,0.002 -0.006,-0.01108 -0.006,-0.01172 -2.4e-4,-7.23e-4 0.006,0.02951 -0.004,0.08008 -0.0208,0.101136 -0.12225,0.264191 -0.16211,0.300781 -0.29537,0.271151 -0.62729,0.287469 -1.01172,0.154297 -0.38442,-0.133172 -0.77215,-0.451014 -0.97265,-0.765625 -0.50785,-0.796914 -0.48112,-1.668336 -0.12305,-2.488281 0.35807,-0.819946 1.06562,-1.555487 1.84766,-1.949219 1.51485,-0.76269 3.11949,-0.620666 4.53711,0.08398 1.41761,0.704651 2.62305,1.98459 3.24414,3.445313 1.04526,2.458403 0.72524,5.010418 -0.45508,7.197265 -1.18032,2.186848 -3.22968,3.987428 -5.59375,4.871098 -7.2757,2.7196 -14.97946,-2.308519 -17.34375,-9.314457 -3.41695,-10.125202 3.58391,-20.61244 13.35742,-23.646484 13.48203,-4.185305 27.23211,5.153642 31.00977,18.201172 2.52553,8.722825 1.50042,14.685989 -1.3086,19.089839 -2.80902,4.40386 -7.45612,7.27247 -12.26562,9.62696 -14.47878,7.08805 -36.88066,7.14878 -56.3086,2.73633 -9.71397,-2.20623 -18.68743,-5.52713 -25.55273,-9.60938 -6.86531,-4.08224 -11.59605,-8.92287 -12.93946,-14.103515 l -0.79296,0.207031 c 1.42891,5.510374 6.3475,10.458884 13.31445,14.601564 6.96694,4.14268 16.00834,7.48174 25.78906,9.70312 19.56144,4.44278 42.07617,4.43444 56.85157,-2.79882 4.85771,-2.37809 9.65169,-5.30946 12.59375,-9.92188 2.94205,-4.61242 3.97641,-10.882788 1.40625,-19.759765 -3.40933,-11.775353 -14.69337,-20.621806 -26.81446,-19.746094 z"
       id="path13-2" /><path
       style="color:#000000;fill:#ffffff;fill-rule:evenodd;stroke:#ffffff;stroke-width:0.8;stroke-linejoin:bevel;stroke-dasharray:none;stroke-opacity:1"
       d="m -183.45587,53.499834 c -1.73159,0.1251 -3.47942,0.44846 -5.22461,0.99023 -10.1785,3.15976 -17.47038,14.08378 -13.89063,24.69141 2.49883,7.40462 10.64656,12.72155 18.40821,9.82031 2.55938,-0.95667 4.74874,-2.88106 6.02734,-5.25 1.2786,-2.36894 1.63771,-5.20285 0.48828,-7.90625 -0.70187,-1.65074 -2.02909,-3.06221 -3.63281,-3.85938 -1.60372,-0.79716 -3.50963,-0.96712 -5.27149,-0.0801 -0.96499,0.48584 -1.78866,1.33987 -2.23046,2.35156 -0.44181,1.01169 -0.48194,2.21346 0.18359,3.25781 0.31124,0.48838 0.81079,0.89739 1.39453,1.09961 0.58374,0.20222 1.29999,0.16403 1.83398,-0.32617 0.20424,-0.18748 0.34753,-0.43331 0.41016,-0.73828 0.0313,-0.15249 0.0402,-0.32675 -0.0195,-0.50586 -0.0597,-0.17912 -0.20147,-0.35277 -0.38672,-0.45117 -0.11162,-0.0593 -0.10575,-0.0414 -0.14648,-0.0508 -0.0407,-0.009 -0.0874,-0.0183 -0.14649,-0.0215 -0.0591,-0.003 -0.12966,-0.0131 -0.25585,0.043 -0.0631,0.028 -0.14588,0.0824 -0.20313,0.17578 -0.0573,0.0934 -0.0732,0.21168 -0.0625,0.29492 l 0.81445,-0.10547 c 0.008,0.0608 -0.004,0.16127 -0.0527,0.24024 -0.0484,0.079 -0.11654,0.12232 -0.16211,0.14258 -0.0911,0.0405 -0.1137,0.0277 -0.12109,0.0273 0.008,0.004 0.0425,0.0271 -0.0488,-0.0215 0.0161,0.009 -0.006,-0.0129 -0.006,-0.0137 -2.4e-4,-7.2e-4 0.004,0.0295 -0.006,0.0801 -0.0208,0.10113 -0.12224,0.26419 -0.16211,0.30078 -0.29537,0.27115 -0.62534,0.28747 -1.00976,0.1543 -0.38443,-0.13317 -0.77411,-0.45101 -0.97461,-0.76563 -0.50785,-0.79691 -0.47916,-1.66833 -0.1211,-2.48828 0.35807,-0.81994 1.06563,-1.55548 1.84766,-1.94921 1.51486,-0.7627 3.1195,-0.62067 4.53711,0.084 1.41761,0.70465 2.62306,1.98459 3.24414,3.44531 1.04526,2.4584 0.72524,5.01042 -0.45508,7.19727 -1.18031,2.18685 -3.22967,3.98742 -5.59375,4.87109 -7.2757,2.7196 -14.97946,-2.30851 -17.34375,-9.31445 -3.41694,-10.1252 3.58196,-20.61245 13.35547,-23.64649 13.48203,-4.1853 27.23406,5.15365 31.01172,18.20118 2.52552,8.72282 1.49847,14.68599 -1.31055,19.08984 -2.80902,4.40385 -7.45416,7.27247 -12.26367,9.626946 -14.47878,7.08806 -36.88261,7.14879 -56.31055,2.73633 -9.71389,-2.20616 -18.6854,-5.525106 -25.5507,-9.607346 -6.86531,-4.08225 -11.598,-8.92482 -12.94141,-14.10547 l -0.79297,0.20703 c 1.42892,5.51038 6.34946,10.45888 13.31641,14.60156 6.96694,4.142686 16.00639,7.481736 25.78711,9.703126 19.56144,4.44277 42.07616,4.43443 56.85156,-2.79883 4.85772,-2.37809 9.65366,-5.309456 12.59571,-9.921866 2.94205,-4.61242 3.9764,-10.8828 1.40625,-19.75977 -3.40933,-11.77535 -14.69532,-20.62181 -26.81641,-19.74609 z"
       id="path13-2-7" /></g></svg>
